<?xml version="1.0" encoding="UTF-8"?>
<svg width="109px" height="90px" viewBox="0 0 109 90" version="1.1" xmlns="http://www.w3.org/2000/svg" xmlns:xlink="http://www.w3.org/1999/xlink">
    <!-- Generator: Sketch 59.1 (86144) - https://sketch.com -->
    <title>thumbnail/map/mobile-1</title>
    <desc>Created with Sketch.</desc>
    <g id="mapTools-desktop-mockup" stroke="none" stroke-width="1" fill="none" fill-rule="evenodd">
        <g id="Default" transform="translate(-1196.000000, -461.000000)">
            <g id="thumbnail/map/mobile-1" transform="translate(1196.000000, 461.000000)">
                <rect id="Background" fill="#181818" fill-rule="nonzero" x="0" y="0" width="109" height="90"></rect>
                <rect id="Shape-Copy-2" fill="#363636" fill-rule="nonzero" x="30" y="1" width="50" height="88"></rect>
                <path d="M71.5031319,1 C71.3678738,1.49469043 71.0009986,1.90979642 70.500259,2.13471429 C68.1179767,3.16367857 65.8440635,4.42932143 65.8440635,5.83260714 C65.8440635,6.77932143 66.6963218,7.21239286 66.6963218,8.16414286 C66.6963218,9.50196429 64.9220082,9.85446429 64.5124099,10.9673571 C64.45618,11.1204529 64.4276418,11.2809033 64.4279188,11.4423929 C64.4279188,12.3958214 65.5630387,14.3798929 62.9180992,14.2053214 C62.2807422,14.1667143 61.0923562,15.2745714 61.2135826,15.8486429 C61.5001177,17.1428214 62.1595158,19.5582857 59.8911129,20.68125 C58.0433288,21.5943929 58.1204728,24.13575 56.0192154,24.13575 C54.7445015,24.13575 54.2706165,22.9271786 52.9977394,22.9271786 C52.0659305,22.987261 51.354539,23.7124263 51.3905713,24.5654643 C51.3905713,25.7975357 50.2572882,27.8470714 48.4609335,27.8470714 C47.5492241,27.9344729 46.6648822,27.5303841 46.1943673,26.8113929 C45.6268073,25.8831429 45.10884,24.9985357 43.9259643,24.9985357 C42.6747681,25.0493671 41.7041029,26.0152336 41.7549098,27.1588571 C41.7549098,27.9981429 42.1314463,28.4731786 42.1314463,29.3158214 C42.1314463,30.6116786 41,31.2142857 41,32.5118214 C41.086916,33.2463681 41.7997864,33.7830516 42.6053313,33.7203929 C43.9039231,33.7203929 44.2400509,33.0791786 45.5312956,33.2000357 C46.4551877,33.2856429 46.7619272,34.3884643 46.7619272,34.9289643 C46.7619272,37.1094286 42.7155371,37.8110714 44.2088259,40.53875 C44.8131211,41.6365357 48.6501201,41.1212143 48.6501201,42.9575714 C48.6405589,43.597556 48.5081391,44.2310386 48.2588895,44.8291786 C47.8762043,45.6298292 47.6570813,46.4877222 47.6123487,47.3604643 C47.6123487,47.4729286 47.6307163,47.7079286 47.6601046,48 C48.5777822,49.7784831 50.0305176,50.6677246 52.0183105,50.6677246 C54.0061035,50.6677246 55.4762712,49.7784831 56.4288136,48 C56.8237178,46.7343571 57.9588377,45.4317857 57.9588377,44.71 L57.9588377,44.6126429 C56.1220741,43.9999643 57.1708661,43.6206071 57.1708661,42.9810714 C57.1708661,41.0372857 60.4476522,41.2957857 60.4476522,39.3553571 C60.4476522,38.7712143 59.7717233,38.5546786 59.7717233,37.9738929 C59.7717233,36.5471071 61.6323647,36.2667857 61.6323647,34.8433571 L61.6323647,33.1580714 C61.6323647,32.5118214 62.5580935,32.067 63.2670843,32.067 C64.0679132,32.067 64.6630245,32.5588214 65.467527,32.5588214 C67.2400038,32.5588214 67.377761,30.0745357 69.1520746,30.0745357 C70.4745443,30.0745357 70.4525032,31.5013214 71.4204776,32.2801786 C72.402535,32.869147 73.5955917,33.0886511 74.7505298,32.8928571 L77.0648519,32.8928571 C77.4450619,32.8928571 78.8391655,32.2801786 80,31.9864286 L80,1 L71.5031319,1 Z" id="Path-2" fill="#444444" fill-rule="nonzero"></path>
                <rect id="Rectangle" fill="#6A6A6A" x="36" y="6" width="30" height="6"></rect>
                <rect id="Rectangle-Copy" fill="#6A6A6A" x="68" y="6" width="6" height="6"></rect>
                <rect id="Rectangle-Copy-12" fill="#6A6A6A" x="68" y="17" width="6" height="18"></rect>
                <rect id="Rectangle-Copy-13" fill="#6A6A6A" x="68" y="65" width="6" height="18"></rect>
                <rect id="Rectangle-Copy-14" fill="#6A6A6A" x="36" y="77" width="6" height="6"></rect>
                <rect id="Rectangle-Copy-15" fill="#6A6A6A" x="36" y="69" width="6" height="6"></rect>
            </g>
        </g>
    </g>
</svg>