<?xml version="1.0" encoding="UTF-8"?>
<svg width="109px" height="90px" viewBox="0 0 109 90" version="1.1" xmlns="http://www.w3.org/2000/svg" xmlns:xlink="http://www.w3.org/1999/xlink">
    <!-- Generator: Sketch 59.1 (86144) - https://sketch.com -->
    <title>thumbnail/map/desktop-1</title>
    <desc>Created with Sketch.</desc>
    <g id="mapTools-desktop-mockup" stroke="none" stroke-width="1" fill="none" fill-rule="evenodd">
        <g id="Default" transform="translate(-1196.000000, -322.000000)">
            <g id="thumbnail/map/desktop-1" transform="translate(1196.000000, 322.000000)">
                <rect id="Background-2" fill="#181818" fill-rule="nonzero" x="0" y="0" width="109" height="90"></rect>
                <path d="M92.6598691,0 C92.3997573,0.947279541 91.694228,1.74216336 90.7312674,2.17285714 C86.1499553,4.14321429 81.7770452,6.56678571 81.7770452,9.25392857 C81.7770452,11.0667857 83.4160034,11.8960714 83.4160034,13.7185714 C83.4160034,16.2803571 80.0038619,16.9553571 79.2161729,19.0864286 C79.1080384,19.3795907 79.0531574,19.6868361 79.05369,19.9960714 C79.05369,21.8217857 81.2366128,25.6210714 76.1501907,25.2867857 C74.9245043,25.2128571 72.6391466,27.3342857 72.8722743,28.4335714 C73.4233033,30.9117857 74.6913766,35.5371429 70.3290633,37.6875 C66.7756323,39.4360714 66.9239862,44.3025 62.8831065,44.3025 C60.4317336,44.3025 59.5204163,41.9882143 57.0725757,41.9882143 C55.2806356,42.1032657 53.9125751,43.4918801 53.9818678,45.1253571 C53.9818678,47.4846429 51.8024773,51.4092857 48.3479489,51.4092857 C46.5946618,51.5766501 44.8940042,50.8028631 43.9891678,49.4260714 C42.8977064,47.6485714 41.9016154,45.9546429 39.6268544,45.9546429 C37.2207079,46.0519796 35.354044,47.9015112 35.4517496,50.0914286 C35.4517496,51.6985714 36.1758583,52.6082143 36.1758583,54.2217857 C36.1758583,56.7032143 34,57.8571429 34,60.3417857 C34.1671461,61.7483645 35.5380507,62.7760562 37.0871756,62.6560714 C39.5844676,62.6560714 40.230867,61.4282143 42.71403,61.6596429 C44.4907455,61.8235714 45.0806292,63.9353571 45.0806292,64.9703571 C45.0806292,69.1457143 37.2991099,70.4892857 40.170819,75.7125 C41.3329252,77.8146429 48.7117694,76.8278571 48.7117694,80.3442857 C48.6933825,81.569788 48.4387291,82.7828398 47.9594028,83.9282143 C47.2234698,85.4613751 46.8020795,87.1041489 46.7160552,88.7753571 C46.7160552,88.9907143 46.7513776,89.4407143 46.8078934,90 L63.6707955,90 C64.4302265,87.5764286 66.6131493,85.0821429 66.6131493,83.7 L66.6131493,83.5135714 C63.0809118,82.3403571 65.0978194,81.6139286 65.0978194,80.3892857 C65.0978194,76.6671429 71.3993312,77.1621429 71.3993312,73.4464286 C71.3993312,72.3278571 70.0994678,71.9132143 70.0994678,70.8010714 C70.0994678,68.0689286 73.6776245,67.5321429 73.6776245,64.8064286 L73.6776245,61.5792857 C73.6776245,60.3417857 75.4578722,59.49 76.8213159,59.49 C78.3613715,59.49 79.5058164,60.4317857 81.0529365,60.4317857 C84.4615457,60.4317857 84.7264635,55.6746429 88.138605,55.6746429 C90.681816,55.6746429 90.6394292,58.4067857 92.5009184,59.8982143 C94.3894903,61.0260261 96.6838301,61.4463532 98.9048651,61.0714286 L103.355484,61.0714286 C104.086658,61.0714286 106.767626,59.8982143 109,59.3357143 L109,0 L92.6598691,0 Z" id="Shape-Copy" fill="#363636" fill-rule="nonzero"></path>
                <rect id="Rectangle-Copy-10" fill="#6A6A6A" x="6" y="6" width="6" height="13"></rect>
                <rect id="Rectangle-Copy-4" fill="#6A6A6A" x="97" y="6" width="6" height="30"></rect>
                <rect id="Rectangle-Copy-11" fill="#6A6A6A" x="6" y="21" width="6" height="6"></rect>
                <rect id="Rectangle-Copy-2" fill="#6A6A6A" x="6" y="74" width="10" height="10"></rect>
                <rect id="Rectangle-Copy-3" fill="#6A6A6A" x="97" y="78" width="6" height="6"></rect>
            </g>
        </g>
    </g>
</svg>