<?xml version="1.0" encoding="UTF-8"?>
<svg width="109px" height="90px" viewBox="0 0 109 90" version="1.1" xmlns="http://www.w3.org/2000/svg" xmlns:xlink="http://www.w3.org/1999/xlink">
    <!-- Generator: Sketch 59.1 (86144) - https://sketch.com -->
    <title>thumbnail/map/desktop-2</title>
    <desc>Created with Sketch.</desc>
    <g id="mapTools-desktop-mockup" stroke="none" stroke-width="1" fill="none" fill-rule="evenodd">
        <g id="Default" transform="translate(-1315.000000, -322.000000)">
            <g id="thumbnail/map/desktop-2" transform="translate(1315.000000, 322.000000)">
                <rect id="Background" fill="#181818" fill-rule="nonzero" x="0" y="0" width="109" height="90"></rect>
                <rect id="Rectangle-Copy-6" fill="#6A6A6A" x="97" y="63" width="6" height="13"></rect>
                <rect id="Rectangle-Copy-5" fill="#6A6A6A" x="6" y="6" width="30" height="6"></rect>
                <rect id="Rectangle-Copy-7" fill="#6A6A6A" x="97" y="78" width="6" height="6"></rect>
                <path d="M92.4420007,0 C92.1784207,0.947279541 91.4634844,1.74216336 90.4876843,2.17285714 C85.845288,4.14321429 81.4140724,6.56678571 81.4140724,9.25392857 C81.4140724,11.0667857 83.0748834,11.8960714 83.0748834,13.7185714 C83.0748834,16.2803571 79.6172467,16.9553571 78.8190552,19.0864286 C78.7094789,19.3795907 78.6538662,19.6868361 78.6544059,19.9960714 C78.6544059,21.8217857 80.8664343,25.6210714 75.7121933,25.2867857 C74.4701644,25.2128571 72.1543352,27.3342857 72.3905713,28.4335714 C72.9489474,30.9117857 74.2339283,35.5371429 69.8134508,37.6875 C66.2126407,39.4360714 66.3629727,44.3025 62.2682146,44.3025 C59.7841567,44.3025 58.8606886,41.9882143 56.3802101,41.9882143 C54.5643774,42.1032657 53.1780761,43.4918801 53.2482928,45.1253571 C53.2482928,47.4846429 51.0398436,51.4092857 47.5392549,51.4092857 C45.7625906,51.5766501 44.0392576,50.8028631 43.1223567,49.4260714 C42.0163425,47.6485714 41.0069703,45.9546429 38.7018792,45.9546429 C36.2636506,46.0519796 34.3720979,47.9015112 34.4711063,50.0914286 C34.4711063,51.6985714 35.2048698,52.6082143 35.2048698,54.2217857 C35.2048698,56.7032143 33,57.8571429 33,60.3417857 C33.1693747,61.7483645 34.5585581,62.7760562 36.128338,62.6560714 C38.6589271,62.6560714 39.3139453,61.4282143 41.8302171,61.6596429 C43.6306221,61.8235714 44.2283709,63.9353571 44.2283709,64.9703571 C44.2283709,69.1457143 36.343098,70.4892857 39.2530966,75.7125 C40.4306975,77.8146429 47.9079263,76.8278571 47.9079263,80.3442857 C47.8892943,81.569788 47.6312455,82.7828398 47.1455282,83.9282143 C46.3997827,85.4613751 45.9727739,87.1041489 45.8856026,88.7753571 C45.8856026,88.9907143 45.9213959,89.4407143 45.9786653,90 L63.0664061,90 C63.8359629,87.5764286 66.0479913,85.0821429 66.0479913,83.7 L66.0479913,83.5135714 C62.4686573,82.3403571 64.512457,81.6139286 64.512457,80.3892857 C64.512457,76.6671429 70.897989,77.1621429 70.897989,73.4464286 C70.897989,72.3278571 69.580794,71.9132143 69.580794,70.8010714 C69.580794,68.0689286 73.2066594,67.5321429 73.2066594,64.8064286 L73.2066594,61.5792857 C73.2066594,60.3417857 75.0106438,59.49 76.3922668,59.49 C77.9528564,59.49 79.1125606,60.4317857 80.680309,60.4317857 C84.1343663,60.4317857 84.4028164,55.6746429 87.8604531,55.6746429 C90.4375736,55.6746429 90.3946216,58.4067857 92.2809306,59.8982143 C94.1946835,61.0260261 96.5196145,61.4463532 98.7702633,61.0714286 L103.280224,61.0714286 C104.021146,61.0714286 106.737861,59.8982143 109,59.3357143 L109,0 L92.4420007,0 Z" id="Shape" fill="#363636" fill-rule="nonzero"></path>
                <rect id="Rectangle-Copy-8" fill="#6A6A6A" x="6" y="74" width="10" height="10"></rect>
                <rect id="Rectangle-Copy-9" fill="#6A6A6A" x="97" y="6" width="6" height="6"></rect>
            </g>
        </g>
    </g>
</svg>