<?xml version="1.0" encoding="UTF-8"?>
<svg width="16px" height="16px" viewBox="0 0 16 16" version="1.1" xmlns="http://www.w3.org/2000/svg" xmlns:xlink="http://www.w3.org/1999/xlink">
    <!-- Generator: Sketch 55.2 (78181) - https://sketchapp.com -->
    <title>basemap-16-hover</title>
    <desc>Created with Sketch.</desc>
    <g id="Maptools_v0.2" stroke="none" stroke-width="1" fill="none" fill-rule="evenodd">
        <g id="icons" transform="translate(-318.000000, -352.000000)" fill="#000000" fill-rule="nonzero">
            <g id="basemap-16-hover" transform="translate(318.000000, 352.000000)">
                <path d="M9,0 L9,7 L16,7 L16,0 L9,0 Z M15,6 L10,6 L10,5 L12.364,5 L11.876,4.377 C11.7958594,4.27341654 11.7296296,4.15978364 11.679,4.039 C12.4731526,3.9554978 13.0777018,3.28851293 13.083,2.49 C13.0699101,2.43803328 13.0809298,2.3829347 13.113,2.34 C13.145,2.304 13.283,2.182 13.755,2.145 C14.1797814,2.14937706 14.5810984,1.95057651 14.835,1.61 C14.9509161,1.42824925 15.0084897,1.21540149 15,1 L15,6 Z M0,0 L0,7 L7,7 L7,0 L0,0 Z M6,3.77 C5.60899789,3.85617184 5.26439848,4.08554805 5.034,4.413 C5.29971642,4.71625239 5.62972918,4.95641696 6,5.116 L6,6.015 C5.33789005,5.80629705 4.73771741,5.43698647 4.253,4.94 C4.00781145,5.24892322 3.84106146,5.61261663 3.767,6 L2.983,6 C3.06656585,5.41839421 3.30681463,4.87048872 3.678,4.415 C3.31505131,4.02335658 2.99149446,3.59697161 2.712,3.142 C2.30057439,3.66875305 1.66837807,3.97525009 1,3.972 L1,3 C1.56220905,3.00511601 2.08045354,2.69663715 2.344,2.2 C2.19964055,1.80911468 2.08465454,1.40800072 2,1 L3.01,1 C3.09557059,2.11118917 3.61239102,3.14483002 4.45,3.88 C4.86705743,3.43407253 5.4061126,3.12072498 6,2.979 L6,3.77 Z M0,9 L0,16 L7,16 L7,9 L0,9 Z M6,15 L1,15 L1,13 L5,13 L5,12.074 L6,11 L6,15 Z M9,9 L9,16 L16,16 L16,9 L9,9 Z M15,13.62 L13.467,12.077 L12.055,13.489 L13.277,15 L12.287,15 L11.022,13.434 L12.925,11.531 L11.405,10 L12.49,10 L15,12.527 L15,13.62 Z" id="Shape"></path>
            </g>
        </g>
    </g>
</svg>