<?xml version="1.0" encoding="UTF-8"?>
<svg width="16px" height="16px" viewBox="0 0 16 16" version="1.1" xmlns="http://www.w3.org/2000/svg" xmlns:xlink="http://www.w3.org/1999/xlink">
    <!-- Generator: Sketch 55.2 (78181) - https://sketchapp.com -->
    <title>layers-16-hover</title>
    <desc>Created with Sketch.</desc>
    <g id="Maptools_v0.2" stroke="none" stroke-width="1" fill="none" fill-rule="evenodd">
        <g id="icons" transform="translate(-232.000000, -352.000000)" fill="#000000" fill-rule="nonzero">
            <g id="layers-16-hover" transform="translate(232.000000, 352.000000)">
                <path d="M15.71,11.487 L8.31,15.928 C8.10915452,16.023718 7.87584548,16.023718 7.675,15.928 L0.27,11.487 C0.164778174,11.4466911 0.0953036484,11.3456785 0.0953036484,11.233 C0.0953036484,11.1203215 0.164778174,11.0193089 0.27,10.979 L1.183,10.432 L7.673,14.327 C7.87384548,14.422718 8.10715452,14.422718 8.308,14.327 L14.798,10.432 L15.71,10.979 C15.8161283,11.0184731 15.8865278,11.1197686 15.8865278,11.233 C15.8865278,11.3462314 15.8161283,11.4475269 15.71,11.487 L15.71,11.487 Z M15.71,7.747 L14.8,7.2 L8.31,11.094 C8.10915452,11.189718 7.87584548,11.189718 7.675,11.094 L1.184,7.2 L0.271,7.747 C0.166458089,7.78766162 0.0975989351,7.8883288 0.0975989351,8.0005 C0.0975989351,8.1126712 0.166458089,8.21333838 0.271,8.254 L7.674,12.696 C7.87484548,12.791718 8.10815452,12.791718 8.309,12.696 L15.711,8.254 C15.8164319,8.21415389 15.8861942,8.11321026 15.8861942,8.0005 C15.8861942,7.88778974 15.8164319,7.78684611 15.711,7.747 L15.71,7.747 Z M0.272,5.022 L7.675,9.463 C7.87584548,9.55871801 8.10915452,9.55871801 8.31,9.463 L15.712,5.022 C15.8181283,4.98252685 15.8885278,4.88123141 15.8885278,4.768 C15.8885278,4.65476859 15.8181283,4.55347315 15.712,4.514 L8.309,0.073 C8.10815452,-0.0227180127 7.87484548,-0.0227180127 7.674,0.073 L0.27,4.514 C0.164778174,4.55430893 0.0953036484,4.65532151 0.0953036484,4.768 C0.0953036484,4.88067849 0.164778174,4.98169107 0.27,5.022 L0.272,5.022 Z" id="Shape"></path>
            </g>
        </g>
    </g>
</svg>