<?xml version="1.0" encoding="UTF-8"?>
<svg width="16px" height="14px" viewBox="0 0 16 14" version="1.1" xmlns="http://www.w3.org/2000/svg" xmlns:xlink="http://www.w3.org/1999/xlink">
    <!-- Generator: Sketch 55.2 (78181) - https://sketchapp.com -->
    <title>measure-16-hover</title>
    <desc>Created with Sketch.</desc>
    <g id="Maptools_v0.2" stroke="none" stroke-width="1" fill="none" fill-rule="evenodd">
        <g id="icons" transform="translate(-405.000000, -353.000000)" fill="#000000" fill-rule="nonzero">
            <g id="measure-16-hover" transform="translate(405.000000, 353.000000)">
                <path d="M3.646,6.354 L0.795,3.502 L3.615,0.648 L4.327,1.352 L2.697,3 L7,3 L7,4 L2.707,4 L4.354,5.646 L3.646,6.354 Z M11.773,5.648 L12.483,6.352 L15.305,3.498 L12.454,0.646 L11.747,1.353 L13.393,3 L9.1,3 L9.1,4 L13.403,4 L11.773,5.648 Z M16,8 L16,14 L0,14 L0,8 L16,8 Z M3,11 L2,11 L2,13 L3,13 L3,11 Z M5,10 L4,10 L4,13 L5,13 L5,10 Z M7,11 L6,11 L6,13 L7,13 L7,11 Z M9,10 L8,10 L8,13 L9,13 L9,10 Z M11,11 L10,11 L10,13 L11,13 L11,11 Z M13,10 L12,10 L12,13 L13,13 L13,10 Z M15,11 L14,11 L14,13 L15,13 L15,11 Z" id="Shape"></path>
            </g>
        </g>
    </g>
</svg>