<?xml version="1.0" encoding="UTF-8"?>
<svg width="16px" height="16px" viewBox="0 0 16 16" version="1.1" xmlns="http://www.w3.org/2000/svg" xmlns:xlink="http://www.w3.org/1999/xlink">
    <!-- Generator: Sketch 55.2 (78181) - https://sketchapp.com -->
    <title>search-16-hover</title>
    <desc>Created with Sketch.</desc>
    <g id="Maptools_v0.2" stroke="none" stroke-width="1" fill="none" fill-rule="evenodd">
        <g id="icons" transform="translate(-144.000000, -352.000000)" fill="#000000" fill-rule="nonzero">
            <g id="search-16-hover" transform="translate(144.000000, 352.000000)">
                <path d="M15.757,13.907 L12.748,10.897 C12.4921308,10.6426268 12.0788692,10.6426268 11.823,10.897 L11.814,10.905 L10.585,9.676 C12.5447707,7.23326376 12.2566948,3.68542056 9.92850668,1.59085576 C7.60031857,-0.503709038 4.04186978,-0.41640892 1.81919347,1.78980312 C-0.403482842,3.99601517 -0.51723705,7.55371654 1.55996015,9.89741306 C3.63715735,12.2411096 7.18276069,12.5555552 9.64,10.614 L10.877,11.852 C10.6437886,12.108259 10.6525865,12.5024023 10.897,12.748 L13.907,15.757 C14.02943,15.8804811 14.1961129,15.9499412 14.37,15.9499412 C14.5438871,15.9499412 14.71057,15.8804811 14.833,15.757 L15.757,14.833 C15.8802334,14.7104378 15.949522,14.5438044 15.949522,14.37 C15.949522,14.1961956 15.8802334,14.0295622 15.757,13.907 L15.757,13.907 Z M9.006,9.004 C7.79055386,10.219611 5.96250786,10.5833286 4.37432093,9.92554316 C2.78613401,9.26775769 1.75059237,7.718017 1.75059237,5.999 C1.75059237,4.279983 2.78613401,2.73024231 4.37432093,2.07245684 C5.96250786,1.41467137 7.79055386,1.77838899 9.006,2.994 C10.6654565,4.6536816 10.6654565,7.3443184 9.006,9.004 L9.006,9.004 Z" id="Shape"></path>
            </g>
        </g>
    </g>
</svg>